TITLE ""
FILE "Step3_Track34.mp3" MP3
  TRACK 01 AUDIO
    TITLE "Step3_Track34_01"
    INDEX 01 00:00:00
  TRACK 02 AUDIO
    TITLE "Step3_Track34_02"
    INDEX 01 00:00:22
  TRACK 03 AUDIO
    TITLE "Step3_Track34_03"
    INDEX 01 00:01:72
  TRACK 04 AUDIO
    TITLE "Step3_Track34_04"
    INDEX 01 00:02:54
  TRACK 05 AUDIO
    TITLE "Step3_Track34_05"
    INDEX 01 00:03:52
  TRACK 06 AUDIO
    TITLE "Step3_Track34_06"
    INDEX 01 00:04:16
  TRACK 07 AUDIO
    TITLE "Step3_Track34_07"
    INDEX 01 00:06:62
  TRACK 08 AUDIO
    TITLE "Step3_Track34_08"
    INDEX 01 00:06:74
  TRACK 09 AUDIO
    TITLE "Step3_Track34_09"
    INDEX 01 00:07:67
  TRACK 10 AUDIO
    TITLE "Step3_Track34_10"
    INDEX 01 00:07:69
  TRACK 11 AUDIO
    TITLE "Step3_Track34_11"
    INDEX 01 00:12:06
  TRACK 12 AUDIO
    TITLE "Step3_Track34_12"
    INDEX 01 00:12:12
  TRACK 13 AUDIO
    TITLE "Step3_Track34_13"
    INDEX 01 00:13:05
  TRACK 14 AUDIO
    TITLE "Step3_Track34_14"
    INDEX 01 00:13:17
  TRACK 15 AUDIO
    TITLE "Step3_Track34_15"
    INDEX 01 00:15:57
  TRACK 16 AUDIO
    TITLE "Step3_Track34_16"
    INDEX 01 00:15:67
  TRACK 17 AUDIO
    TITLE "Step3_Track34_17"
    INDEX 01 00:16:64
  TRACK 18 AUDIO
    TITLE "Step3_Track34_18"
    INDEX 01 00:17:03
  TRACK 19 AUDIO
    TITLE "Step3_Track34_19"
    INDEX 01 00:20:25
  TRACK 20 AUDIO
    TITLE "Step3_Track34_20"
    INDEX 01 00:20:31
  TRACK 21 AUDIO
    TITLE "Step3_Track34_21"
    INDEX 01 00:21:32
  TRACK 22 AUDIO
    TITLE "Step3_Track34_22"
    INDEX 01 00:21:52
  TRACK 23 AUDIO
    TITLE "Step3_Track34_23"
    INDEX 01 00:25:00
  TRACK 24 AUDIO
    TITLE "Step3_Track34_24"
    INDEX 01 00:25:14
  TRACK 25 AUDIO
    TITLE "Step3_Track34_25"
    INDEX 01 00:26:12
  TRACK 26 AUDIO
    TITLE "Step3_Track34_26"
    INDEX 01 00:26:14
  TRACK 27 AUDIO
    TITLE "Step3_Track34_27"
    INDEX 01 00:28:28
  TRACK 28 AUDIO
    TITLE "Step3_Track34_28"
    INDEX 01 00:28:56
  TRACK 29 AUDIO
    TITLE "Step3_Track34_29"
    INDEX 01 00:29:59
  TRACK 30 AUDIO
    TITLE "Step3_Track34_30"
    INDEX 01 00:29:61
  TRACK 31 AUDIO
    TITLE "Step3_Track34_31"
    INDEX 01 00:33:59
  TRACK 32 AUDIO
    TITLE "Step3_Track34_32"
    INDEX 01 00:33:74
  TRACK 33 AUDIO
    TITLE "Step3_Track34_33"
    INDEX 01 00:34:70
  TRACK 34 AUDIO
    TITLE "Step3_Track34_34"
    INDEX 01 00:35:03
  TRACK 35 AUDIO
    TITLE "Step3_Track34_35"
    INDEX 01 00:37:47
  TRACK 36 AUDIO
    TITLE "Step3_Track34_36"
    INDEX 01 00:37:60
  TRACK 37 AUDIO
    TITLE "Step3_Track34_37"
    INDEX 01 00:38:62
  TRACK 38 AUDIO
    TITLE "Step3_Track34_38"
    INDEX 01 00:38:64
  TRACK 39 AUDIO
    TITLE "Step3_Track34_39"
    INDEX 01 00:40:74
  TRACK 40 AUDIO
    TITLE "Step3_Track34_40"
    INDEX 01 00:41:15
  TRACK 41 AUDIO
    TITLE "Step3_Track34_41"
    INDEX 01 00:42:09
  TRACK 42 AUDIO
    TITLE "Step3_Track34_42"
    INDEX 01 00:42:19
  TRACK 43 AUDIO
    TITLE "Step3_Track34_43"
    INDEX 01 00:46:26
